<svg xmlns="http://www.w3.org/2000/svg" width="100.77" height="89.362" viewBox="0 0 100.77 89.362">
  <g id="encointer-wallet-svgrepo-com" transform="translate(-3.302 -5.165)">
    <path id="Path_14" data-name="Path 14" d="M5,46.1a40.868,40.868,0,0,0,1.457,6.41,25.894,25.894,0,0,1-.263,11.017m4.557-27.792c.027,4.356-.2,12.444-.094,15.248.077,2.035,1.567,3.831,2,7.336a49.81,49.81,0,0,1-1.132,14.572m6.685-49.826c.706,4.432,3.48,22.309,2.754,25.289-.819,3.555,1.092,7.186,2,14.4.781,6.159-.581,16.024-5.133,21.508M23.365,13.9c2.879,5.432,9.064,18.1,7.161,23.961a14.179,14.179,0,0,0,1.64,13.846c1.64,2.729.911,12.469-.091,14.4s.546,8.914-.819,11.843c-1.281,2.729-.1,10.816-7.659,14.522m3.351-85.2A77.429,77.429,0,0,1,37.89,27.447c5.283,14.17-3.08,14.222,1.029,18.153,4.131,3.931,8.588,12.544,8.588,14.572.034,4.507-7.086,3.856-6.059,6.059a4.974,4.974,0,0,1-1.893,6.284c-2.061,1.029,2.829.9,0,4.382s2.579,7.211-2.188,12.619S23.6,92.471,23.6,92.471" transform="translate(0 0)" fill="none" stroke="#000" stroke-linecap="round" stroke-linejoin="round" stroke-width="3"/>
    <path id="Path_15" data-name="Path 15" d="M68.919,46.1a40.867,40.867,0,0,1-1.457,6.41,25.9,25.9,0,0,0,.263,11.017M63.168,35.734c-.027,4.356.2,12.444.094,15.248-.077,2.035-1.567,3.831-2,7.336A49.819,49.819,0,0,0,62.4,72.891M55.713,23.065c-.706,4.432-3.48,22.309-2.754,25.289.819,3.555-1.092,7.186-2,14.4-.781,6.159.581,16.024,5.133,21.508M50.555,13.9c-2.879,5.432-9.064,18.1-7.161,23.961a14.179,14.179,0,0,1-1.64,13.846c-1.64,2.729-.911,12.469.091,14.4s-.546,8.914.819,11.843c1.281,2.729.1,10.816,7.659,14.522M46.97,7.266A77.429,77.429,0,0,0,36.029,27.447C30.746,41.617,39.109,41.668,35,45.6c-4.131,3.931-8.588,12.544-8.588,14.572-.034,4.507,7.086,3.856,6.059,6.059a4.974,4.974,0,0,0,1.893,6.284c2.061,1.029-2.829.9,0,4.382s-2.579,7.211,2.188,12.619,13.771,2.955,13.771,2.955" transform="translate(33.454 0)" fill="none" stroke="#000" stroke-linecap="round" stroke-linejoin="round" stroke-width="3"/>
  </g>
</svg>
