<svg xmlns="http://www.w3.org/2000/svg" width="102.446" height="117.406" viewBox="0 0 102.446 117.406">
  <g id="unscripted-svgrepo-com" transform="translate(-4.686 -1.594)">
    <path id="Path_16" data-name="Path 16" d="M49.812,46.424s-9.528-9.369-12.623-18.749" transform="translate(55.199 43.044)" fill="none" stroke="#000" stroke-linecap="round" stroke-linejoin="round" stroke-width="3"/>
    <path id="Path_17" data-name="Path 17" d="M41.466,52.078A23.655,23.655,0,0,0,46.7,36.644c-.479-8.913,4.1-21.285,4.1-21.285s-4.051-2.238-8.48,8.057S33.145,32.6,33.145,32.6" transform="translate(48.001 20.749)" fill="none" stroke="#000" stroke-linecap="round" stroke-linejoin="round" stroke-width="3"/>
    <path id="Path_18" data-name="Path 18" d="M43.829,28.925A31.416,31.416,0,0,1,29.765,16.056" transform="translate(41.982 22.356)" fill="none" stroke="#000" stroke-linecap="round" stroke-linejoin="round" stroke-width="3"/>
    <path id="Path_19" data-name="Path 19" d="M30.792,41.764l-.976-20.31c.59-.408,6-16.027-.879-17.953" transform="translate(40.507 0)" fill="none" stroke="#000" stroke-linecap="round" stroke-linejoin="round" stroke-width="3"/>
    <path id="Path_20" data-name="Path 20" d="M34.032,3.5,27.354,22.955s-1.613,20.421-1.217,21.518S27.3,47.6,27.3,47.6" transform="translate(35.411 0)" fill="none" stroke="#000" stroke-linecap="round" stroke-linejoin="round" stroke-width="3"/>
    <path id="Path_21" data-name="Path 21" d="M31,11.225s-4.1-1-5.467,6.063c-2.816,14.567-1.428,16.13.612,18.987" transform="translate(31.617 13.667)" fill="none" stroke="#000" stroke-linecap="round" stroke-linejoin="round" stroke-width="3"/>
    <path id="Path_22" data-name="Path 22" d="M29.9,12.489S24.787,9.652,22.909,20.7s-.9,8.258,1.072,11.722" transform="translate(27.984 15.423)" fill="none" stroke="#000" stroke-linecap="round" stroke-linejoin="round" stroke-width="3"/>
    <path id="Path_23" data-name="Path 23" d="M27.954,25.748s-2.233.2-3.629-4.972-4.207-8.428-5.487-8.428S21.922,30,21.922,30s6.1,10.1,10.927,16.85M35.69,50.2c6.352,5.8,25.016,25.491,30.181,46.99" transform="translate(22.109 15.753)" fill="none" stroke="#000" stroke-linecap="round" stroke-linejoin="round" stroke-width="3"/>
    <path id="Path_24" data-name="Path 24" d="M52.633,34.418s1.919,4.218-5.106,13.975S35.885,59.024,35.6,57.9" transform="translate(52.378 55.05)" fill="none" stroke="#000" stroke-linecap="round" stroke-linejoin="round" stroke-width="3"/>
    <path id="Path_25" data-name="Path 25" d="M29.314,11.221l6.447,2.911a6,6,0,0,1-6.219,1.837" transform="translate(41.179 13.748)" fill="none" stroke="#000" stroke-linecap="round" stroke-linejoin="round" stroke-width="3"/>
    <path id="Path_26" data-name="Path 26" d="M41.193,14.025c-.139,8.963-4.226,23.812-10.435,25.833A25.114,25.114,0,0,0,15.99,56.669C13.5,65.02,6.186,83.65,6.186,83.65c9.871,14.707,18.93,15.111,18.93,15.111s1.9-21.7,7.329-23.371S47.96,66.281,49.075,60.841s4.3-11.315,8.612-13.562-1.073-5.76-7.48-1.478S42,56.758,39.089,58.386" transform="translate(0 18.739)" fill="none" stroke="#000" stroke-linecap="round" stroke-linejoin="round" stroke-width="3"/>
    <path id="Path_27" data-name="Path 27" d="M21.795,35.5a117.567,117.567,0,0,1,11.5-8.4" transform="translate(27.791 42.033)" fill="none" stroke="#000" stroke-linecap="round" stroke-linejoin="round" stroke-width="3"/>
    <path id="Path_28" data-name="Path 28" d="M12.9,37.1c3.045-1.891,14.5-9.9,19.181-9.376" transform="translate(11.951 43.09)" fill="none" stroke="#000" stroke-linecap="round" stroke-linejoin="round" stroke-width="3"/>
    <path id="Path_29" data-name="Path 29" d="M13.7,33.113a33.649,33.649,0,0,0,3.422-7.876" transform="translate(13.385 38.702)" fill="none" stroke="#000" stroke-linecap="round" stroke-linejoin="round" stroke-width="3"/>
    <path id="Path_30" data-name="Path 30" d="M20.073,28.3a26.748,26.748,0,0,0,5.591-5.849" transform="translate(24.725 33.749)" fill="none" stroke="#000" stroke-linecap="round" stroke-linejoin="round" stroke-width="3"/>
    <path id="Path_31" data-name="Path 31" d="M18.517,27.569a17.383,17.383,0,0,0,6.689-6.956" transform="translate(21.955 30.469)" fill="none" stroke="#000" stroke-linecap="round" stroke-linejoin="round" stroke-width="3"/>
    <path id="Path_32" data-name="Path 32" d="M18.517,30.983A68.2,68.2,0,0,0,22.076,18.7" transform="translate(21.955 27.056)" fill="none" stroke="#000" stroke-linecap="round" stroke-linejoin="round" stroke-width="3"/>
  </g>
</svg>
