<svg xmlns="http://www.w3.org/2000/svg" width="86" height="86" viewBox="0 0 86 86">
  <g id="contrast01" transform="translate(0 -0.278)">
    <path id="Path_2" data-name="Path 2" d="M123.647,76.372a36.581,36.581,0,0,0-2.853-6.761,38.188,38.188,0,0,0-6.492-8.7,37.682,37.682,0,1,0-.011,53.29,38.163,38.163,0,0,0,6.481-8.688,36.578,36.578,0,0,0,2.853-6.761,37.642,37.642,0,0,0,0-22.392h0Zm-72.054,11.2c0-17.839,14.641-36.065,36.065-36.065v72.13C65.8,123.633,51.593,105.407,51.593,87.568Z" transform="translate(-44.72 -44.631)" fill="#252422"/>
    <rect id="_Transparent_Rectangle_" width="86" height="86" transform="translate(0 0.278)" fill="none"/>
  </g>
</svg>
