<svg xmlns="http://www.w3.org/2000/svg" width="68.875" height="67.165" viewBox="0 0 68.875 67.165">
  <path id="github-icon" d="M35.392,2.5a32.886,32.886,0,0,0-10.4,64.089c1.652.306,2.248-.7,2.248-1.53V59.476c-9.177,1.988-11.074-4.405-11.074-4.405a8.718,8.718,0,0,0-3.717-4.879c-2.983-2.034.229-2,.229-2a6.914,6.914,0,0,1,5.032,3.4c2.937,5.032,7.648,3.579,9.575,2.738a7.051,7.051,0,0,1,2.1-4.405c-7.311-.826-14.99-3.64-14.99-16.244a12.68,12.68,0,0,1,3.4-8.826,11.747,11.747,0,0,1,.321-8.7s2.753-.887,9.04,3.365a31.3,31.3,0,0,1,16.458,0c6.286-4.252,9.04-3.365,9.04-3.365a11.839,11.839,0,0,1,.321,8.7,12.665,12.665,0,0,1,3.38,8.826c0,12.634-7.648,15.4-15,16.229a7.831,7.831,0,0,1,2.233,6.118v9.024c0,1.086.6,1.9,2.264,1.53A32.886,32.886,0,0,0,35.392,2.5" transform="translate(-0.955 -1)" fill="none" stroke="#edede9" stroke-linecap="round" stroke-linejoin="round" stroke-width="3" fill-rule="evenodd"/>
</svg>
