<svg xmlns="http://www.w3.org/2000/svg" width="69.686" height="69.688" viewBox="0 0 69.686 69.688">
  <g id="instagram-icon" transform="translate(1.5 1.5)">
    <path id="Path_238" data-name="Path 238" d="M37.15,10.46a3.936,3.936,0,1,0,3.883,3.99v-.108A3.918,3.918,0,0,0,37.15,10.46Z" transform="translate(16.558 -1.544)" fill="none" stroke="#edede9" stroke-linecap="round" stroke-linejoin="round" stroke-width="3"/>
    <path id="Path_239" data-name="Path 239" d="M68.5,5.5H9.005A3.6,3.6,0,0,0,5.5,9.1v59.5a3.6,3.6,0,0,0,3.595,3.595h59.5a3.6,3.6,0,0,0,3.595-3.595V9.006A3.6,3.6,0,0,0,68.5,5.5Z" transform="translate(-5.5 -5.499)" fill="none" stroke="#edede9" stroke-linecap="round" stroke-linejoin="round" stroke-width="3"/>
    <path id="Path_240" data-name="Path 240" d="M30.6,15.72A14.883,14.883,0,1,0,45.486,30.6h0A14.883,14.883,0,0,0,30.6,15.72Z" transform="translate(2.65 2.651)" fill="none" stroke="#edede9" stroke-linecap="round" stroke-linejoin="round" stroke-width="3"/>
  </g>
</svg>
