<svg xmlns="http://www.w3.org/2000/svg" width="69.507" height="69.507" viewBox="0 0 69.507 69.507">
  <g id="linkedin-icon" transform="translate(1.5 1.5)">
    <ellipse id="Ellipse_6" data-name="Ellipse 6" cx="1.348" cy="1.348" rx="1.348" ry="1.348" transform="translate(16.878 12.96)"/>
    <line id="Line_77" data-name="Line 77" y2="26.926" transform="translate(18.226 20.545)" fill="none" stroke="#edede9" stroke-linecap="round" stroke-linejoin="round" stroke-width="3"/>
    <path id="Path_241" data-name="Path 241" d="M42.4,44.215V26.941a10.47,10.47,0,0,0-20.941,0V44.215" transform="translate(7.228 3.256)" fill="none" stroke="#edede9" stroke-linecap="round" stroke-linejoin="round" stroke-width="3"/>
    <line id="Line_78" data-name="Line 78" y1="9.652" transform="translate(28.688 20.545)" fill="none" stroke="#edede9" stroke-linecap="round" stroke-linejoin="round" stroke-width="3"/>
    <path id="Path_242" data-name="Path 242" d="M68.412,5.5H9.095A3.6,3.6,0,0,0,5.5,9.095V68.412a3.6,3.6,0,0,0,3.595,3.595H68.412a3.6,3.6,0,0,0,3.595-3.595V9.095A3.6,3.6,0,0,0,68.412,5.5Z" transform="translate(-5.5 -5.5)" fill="none" stroke="#edede9" stroke-linecap="round" stroke-linejoin="round" stroke-width="3"/>
  </g>
</svg>
