<svg xmlns="http://www.w3.org/2000/svg" width="71.304" height="67.163" viewBox="0 0 71.304 67.163">
  <g id="home-icon" transform="translate(1.5 1.5)">
    <path id="Path_232" data-name="Path 232" d="M26.036,8.632s-7.483,26.43-6.846,26.43S48.8,40.316,48.8,40.316Z" transform="translate(6.285 -4.174)" fill="none" stroke="#edede9" stroke-linecap="round" stroke-linejoin="round" stroke-width="3"/>
    <path id="Path_233" data-name="Path 233" d="M36.261,10.61,6.329,6.152,29.414,37.04,33.4,55.349,59.029,42.294l6.687-15.843-16.132,2.7" transform="translate(-3.94 -6.152)" fill="none" stroke="#edede9" stroke-linecap="round" stroke-linejoin="round" stroke-width="3"/>
    <path id="Path_234" data-name="Path 234" d="M37.929,23.574h9.115l-6.528-6.129" transform="translate(21.26 2.854)" fill="none" stroke="#edede9" stroke-linecap="round" stroke-linejoin="round" stroke-width="3"/>
    <path id="Path_235" data-name="Path 235" d="M27.5,41.645l.636,3.424L13.725,56.611l9.791-33.275" transform="translate(1.958 7.552)" fill="none" stroke="#edede9" stroke-linecap="round" stroke-linejoin="round" stroke-width="3"/>
    <path id="Path_236" data-name="Path 236" d="M45.856,26.259,44.9,31.434,22.848,37.977" transform="translate(9.233 9.883)" fill="none" stroke="#edede9" stroke-linecap="round" stroke-linejoin="round" stroke-width="3"/>
    <path id="Path_237" data-name="Path 237" d="M11.21,9H5l19.851,18.25" transform="translate(-5 -3.883)" fill="none" stroke="#edede9" stroke-linecap="round" stroke-linejoin="round" stroke-width="3"/>
  </g>
</svg>
