<?xml version="1.0" encoding="utf-8"?>
<!-- Generator: Adobe Illustrator 27.7.0, SVG Export Plug-In . SVG Version: 6.00 Build 0)  -->
<svg version="1.1" id="Layer_2_00000048476682565111373440000009068413454437914756_"
	 xmlns="http://www.w3.org/2000/svg" xmlns:xlink="http://www.w3.org/1999/xlink" x="0px" y="0px" viewBox="0 0 800 800"
	 style="enable-background:new 0 0 800 800;" xml:space="preserve">
<style type="text/css">
	.st0{fill:none;stroke:#FFFFFF;stroke-width:16.6667;stroke-linecap:round;stroke-linejoin:round;stroke-miterlimit:66.6667;}
</style>
<path class="st0" d="M589.7,174.3c-20.2-0.3-36.7,15.8-37,36c-0.3,20.2,15.8,36.7,36,37c20.2,0.3,36.7-15.8,37-36v-1
	C625.5,190.5,609.5,174.5,589.7,174.3z"/>
<path class="st0" d="M675.8,91.7H124.2c-18.1,0.5-32.5,15.2-32.5,33.3v551.7c0,18.4,14.9,33.3,33.3,33.3h551.7
	c18.4,0,33.3-14.9,33.3-33.3V124.2C709.5,105.8,694.3,91.2,675.8,91.7C675.8,91.7,675.8,91.7,675.8,91.7z"/>
<path class="st0" d="M400,262c-76.2,0-138,61.8-138,138s61.8,138,138,138s138-61.8,138-138l0,0l0,0C538,323.8,476.2,262,400,262z"/>
</svg>
