<?xml version="1.0" encoding="UTF-8"?>
<svg id="Layer_1" data-name="Layer 1" xmlns="http://www.w3.org/2000/svg" viewBox="0 0 1218.81 108.95">
  <path d="m0,106.23c.16-.55.33-1.09.53-1.6.2-.51.33-1.05.41-1.6.16-.55.18-1.03.06-1.42-.12-.4-.14-.87-.06-1.42.16-.63.28-1.26.35-1.89.08-.63-.2-1.22-.83-1.78-.08-.08,0-.31.24-.71.24-.39.43-.75.59-1.07-.87-1.1-1.26-2.25-1.18-3.43.08-1.18.2-2.37.35-3.55.16-.95.39-1.84.71-2.66.31-.83.59-1.64.83-2.43.08-.16.12-.31.12-.47-1.03-1.18-1.38-2.39-1.07-3.61.31-1.22.47-2.39.47-3.49.08-3.79.12-7.56.12-11.31s.04-7.52.12-11.31c.16-3.24.33-6.47.53-9.71.2-3.24.37-6.43.53-9.59.08-3.16.12-6.28.12-9.35s.04-6.16.12-9.24c.16-1.81.24-3.61.24-5.39s.04-3.61.12-5.51c0-.24.04-.49.12-.77.08-.28.16-.45.24-.53,2.76-.55,5.54-.75,8.35-.59,2.8.16,5.62.28,8.47.35,2.84.08,5.68-.24,8.53-.95.39.24.75.57,1.07,1.01.31.44.47.97.47,1.6-.16,3.16-.32,6.35-.47,9.59-.16,3.24-.32,6.47-.47,9.71,0,1.03.04,1.99.12,2.9.08.91.12,1.88.12,2.9-.08.87-.08,1.74,0,2.6.08.87-.24,1.74-.95,2.6-.16.4-.16.67,0,.83.87,1.26,1.07,2.41.59,3.43-.47,1.03-.91,2.17-1.3,3.43.95.63,1.46,1.44,1.54,2.43.08.99.04,1.99-.12,3.02-.79,5.53-1.03,11.09-.71,16.69,0,1.5-.08,2.98-.24,4.44-.16,1.46-.32,2.94-.47,4.44v6.16c-.08,1.26-.12,2.53-.12,3.79s-.04,2.57-.12,3.91c-.08,2.92-.18,5.92-.3,9-.12,3.08-.26,6.16-.42,9.23-.08,1.97-1.07,2.96-2.96,2.96-1.11,0-2.25.02-3.43.06-1.18.04-2.25-.34-3.2-1.12-.16-.16-.34-.26-.53-.3-.2-.04-.38-.06-.53-.06-.71.63-1.4.79-2.07.47-.67-.32-1.32-.59-1.95-.83-.32.24-.63.51-.95.83-.32.31-.67.59-1.07.83-.32,0-.51-.04-.59-.12-.55-.71-1.22-1.07-2.01-1.07s-1.5.16-2.13.47c-1.66,1.03-3.08.95-4.26-.24-.16-.16-.37-.26-.65-.3-.28-.04-.61-.14-1.01-.3Zm29.36-1.07v-10.12c0-3.35.31-6.73.95-10.12.16-1.1.2-2.27.12-3.49-.08-1.22-.12-2.47-.12-3.73.08-.71.14-1.42.18-2.13.04-.71.1-1.54.18-2.49,2.45-.08,4.87-.14,7.28-.18,2.41-.04,4.83.14,7.28.53,0,1.89.02,3.79.06,5.68.04,1.89.02,3.79-.06,5.68-.16,3.24-.35,6.49-.59,9.77-.24,3.28-.43,6.53-.59,9.77-.08,1.5-.32,2.47-.71,2.9-.4.43-1.34.65-2.84.65h-8.41c-1.11,0-1.84-.18-2.19-.53-.36-.35-.53-1.09-.53-2.19Z"/>
  <path d="m143.15,106.47c-.71,0-1.18-.16-1.42-.47-.24-.32-.43-.83-.59-1.54,0-3.16-.06-6.35-.18-9.59-.12-3.24-.26-6.39-.42-9.47v-14.21h-6.98c-.08,1.03-.12,2.01-.12,2.96v2.84c-.08,1.89-.14,3.81-.18,5.74-.04,1.94-.14,3.89-.3,5.86-.08,2.37-.16,4.78-.24,7.22-.08,2.45-.2,4.93-.35,7.46,0,.95-.12,1.58-.35,1.89-.24.31-.91.47-2.01.47-.87.08-1.76.2-2.66.35-.91.16-1.76-.12-2.55-.83-.08-.08-.26-.04-.53.12-.28.16-.49.2-.65.12-.4,0-.81-.04-1.24-.12-.44-.08-.89-.16-1.36-.24-1.5.55-3.06.77-4.68.65-1.62-.12-3.34-.22-5.15-.3v-4.38c.16-2.45.14-4.87-.06-7.28-.2-2.41.1-4.76.89-7.05.16-.24.24-.63.24-1.18,0-1.74-.04-3.41-.12-5.03-.08-1.62-.12-3.26-.12-4.91.24-4.26.35-8.41.35-12.43.24-3.63.39-7.22.47-10.77.08-3.55.12-7.14.12-10.77.16-2.76.24-5.52.24-8.29v-8.29c-.08-1.02-.18-2.05-.3-3.08-.12-1.03-.1-2.09.06-3.2.71-3.08,1.81-5.84,3.32-8.29,1.5-2.45,3.55-4.54,6.16-6.28,1.1-.71,2.19-1.4,3.26-2.07,1.07-.67,2.23-1.16,3.49-1.48.16,0,.35-.08.59-.24.24-.16.51-.24.83-.24,2.21,0,4.44-.04,6.69-.12,2.25-.08,4.48.04,6.69.36,1.1.08,2.23.45,3.37,1.12,1.14.67,2.15,1.36,3.02,2.07,2.29,1.74,4.16,3.79,5.62,6.16,1.46,2.37,2.7,4.85,3.73,7.46-.32,1.66-.12,3.28.59,4.85.71,1.58,1.26,3.16,1.66,4.74v79.8h-13.02c-1.03,0-1.99-.02-2.9-.06-.91-.04-1.88-.06-2.9-.06Zm-2.6-57.66c-.16-2.29-.12-4.48.12-6.57.24-2.09.28-4.2.12-6.33-.16-2.05-.16-4.12,0-6.22.16-2.09.04-4.2-.35-6.33-.95.08-1.88.14-2.78.18-.91.04-1.8.1-2.66.18-.08,4.19-.2,8.37-.35,12.55-.16,4.18-.32,8.37-.47,12.55h6.39Z"/>
  <path d="m257.88,61.47c0,2.29.12,4.56.35,6.81.24,2.25.2,4.52-.12,6.81-.32,2.05-.34,4.08-.06,6.1.28,2.01.3,4.05.06,6.1-.24,2.84-.4,5.72-.47,8.64-.08,2.92-.2,5.88-.36,8.88,0,.31-.08.65-.24,1.01-.16.35-.28.73-.35,1.12h-26.4V4.88h27c.16,1.42.33,2.84.53,4.26.2,1.42.3,2.84.3,4.26.24,5.05.12,10.1-.36,15.16-.24,2.53-.22,5.05.06,7.58.28,2.53.41,5.05.41,7.58,0,2.37-.08,4.74-.24,7.1-.16,2.37-.28,4.7-.35,6.99,0,.55.02,1.15.06,1.78.04.63.1,1.26.18,1.89Zm25.93-43.45c.87,1.5,1.62,3.02,2.25,4.56.63,1.54.87,3.22.71,5.03-.08,1.26-.12,2.53-.12,3.79s.04,2.53.12,3.79c.24,1.74.18,3.45-.18,5.15-.36,1.7-1.05,3.22-2.07,4.56-.79,1.42-1.78,2.72-2.96,3.91-1.18,1.18-2.37,2.33-3.55,3.43-1.42,1.26-2.94,2.23-4.56,2.9-1.62.67-3.34,1.28-5.15,1.83h6.75c1.81,0,2.9.22,3.26.65.35.44.61,1.56.77,3.37.55,6.71.75,13.42.59,20.13-.16,6.71-.16,13.42,0,20.13v4.85c-.79.16-1.54.35-2.25.59s-1.38.35-2.01.35c-1.74.08-3.41.1-5.03.06-1.62-.04-3.26-.06-4.91-.06-1.18,0-1.97-.18-2.37-.53-.4-.36-.79-1.09-1.18-2.19-.55-2.05-.83-4.07-.83-6.04s-.08-3.95-.24-5.92c-.24-2.68-.41-5.41-.53-8.17-.12-2.76-.26-5.49-.42-8.17-.08-1.5-.14-2.94-.18-4.32-.04-1.38-.14-2.74-.3-4.08-.08-1.34.47-2.37,1.66-3.08-.55-.71-1.03-1.38-1.42-2.01-.4-.63-.16-1.46.71-2.49.39-.55.57-1.28.53-2.19-.04-.91-.1-1.76-.18-2.55-.08-1.81-.22-3.57-.41-5.27-.2-1.7-.34-3.41-.42-5.15-.08-4.5-.14-9.02-.18-13.56-.04-4.54-.14-9.1-.3-13.68,0-.95.06-1.91.18-2.9.12-.99.18-1.99.18-3.02,0-1.1-.12-2.29-.35-3.55-.24-1.66.43-2.68,2.01-3.08.95-.16,1.85-.28,2.72-.36.87-.08,1.74.16,2.6.71.31.24.67.4,1.07.47.39.08.71.16.95.24.55.24,1.22.71,2.01,1.42,5.6,1.97,9.95,5.45,13.02,10.42Z"/>
  <path d="m388.59,106.47c-.71,0-1.18-.16-1.42-.47-.24-.32-.43-.83-.59-1.54,0-3.16-.06-6.35-.18-9.59-.12-3.24-.26-6.39-.42-9.47v-14.21h-6.98c-.08,1.03-.12,2.01-.12,2.96v2.84c-.08,1.89-.14,3.81-.18,5.74-.04,1.94-.14,3.89-.3,5.86-.08,2.37-.16,4.78-.24,7.22-.08,2.45-.2,4.93-.35,7.46,0,.95-.12,1.58-.35,1.89-.24.31-.91.47-2.01.47-.87.08-1.76.2-2.66.35-.91.16-1.76-.12-2.55-.83-.08-.08-.26-.04-.53.12-.28.16-.49.2-.65.12-.4,0-.81-.04-1.24-.12-.44-.08-.89-.16-1.36-.24-1.5.55-3.06.77-4.68.65-1.62-.12-3.34-.22-5.15-.3v-4.38c.16-2.45.14-4.87-.06-7.28-.2-2.41.1-4.76.89-7.05.16-.24.24-.63.24-1.18,0-1.74-.04-3.41-.12-5.03-.08-1.62-.12-3.26-.12-4.91.24-4.26.35-8.41.35-12.43.24-3.63.39-7.22.47-10.77.08-3.55.12-7.14.12-10.77.16-2.76.24-5.52.24-8.29v-8.29c-.08-1.02-.18-2.05-.3-3.08-.12-1.03-.1-2.09.06-3.2.71-3.08,1.81-5.84,3.32-8.29,1.5-2.45,3.55-4.54,6.16-6.28,1.1-.71,2.19-1.4,3.26-2.07,1.07-.67,2.23-1.16,3.49-1.48.16,0,.35-.08.59-.24.24-.16.51-.24.83-.24,2.21,0,4.44-.04,6.69-.12,2.25-.08,4.48.04,6.69.36,1.1.08,2.23.45,3.37,1.12,1.14.67,2.15,1.36,3.02,2.07,2.29,1.74,4.16,3.79,5.62,6.16,1.46,2.37,2.7,4.85,3.73,7.46-.32,1.66-.12,3.28.59,4.85.71,1.58,1.26,3.16,1.66,4.74v79.8h-13.02c-1.03,0-1.99-.02-2.9-.06-.91-.04-1.88-.06-2.9-.06Zm-2.6-57.66c-.16-2.29-.12-4.48.12-6.57.24-2.09.28-4.2.12-6.33-.16-2.05-.16-4.12,0-6.22.16-2.09.04-4.2-.35-6.33-.95.08-1.88.14-2.78.18-.91.04-1.8.1-2.66.18-.08,4.19-.2,8.37-.35,12.55-.16,4.18-.32,8.37-.47,12.55h6.39Z"/>
  <path d="m550.09,101.97c.79-.95,1.12-1.92,1.01-2.9-.12-.99-.02-1.91.3-2.78.08-.16.1-.37.06-.65-.04-.28-.14-.45-.3-.53-.87-1.42-1.18-2.82-.95-4.2.24-1.38.39-2.7.47-3.97.08-1.1.26-2.23.53-3.37.28-1.14.49-2.35.65-3.61-.55-.24-.83-.67-.83-1.3s.04-1.26.12-1.89c.24-3.55.47-6.99.71-10.3.08-5.6.16-11.15.24-16.64.08-5.49.16-10.99.24-16.52.08-3.31.24-6.59.47-9.83.24-3.24.39-6.51.47-9.83,0-1.1-.02-2.23-.06-3.37-.04-1.14-.1-2.27-.18-3.37,0-.47.02-.97.06-1.48.04-.51.1-1.08.18-1.72h10.54c2.29,0,4.5-.02,6.63-.06,2.13-.04,4.26-.1,6.39-.18,2.13,0,2.96.91,2.49,2.72-.16.63-.22,1.2-.18,1.72.04.51.1,1.09.18,1.72.08,1.03.1,2.09.06,3.2-.04,1.11-.06,2.21-.06,3.32-.16,2.29-.32,4.62-.47,6.99-.16,2.37-.28,4.78-.35,7.22-.08,1.26-.2,2.49-.36,3.67-.16,1.18-.12,2.41.12,3.67.16.4.12.85-.12,1.36-.24.51-.35,1.01-.35,1.48-.16.95,0,1.86.47,2.72,1.58-3.95,3.79-7.24,6.63-9.89,2.84-2.64,5.96-5.07,9.35-7.28,3.55-2.29,7.28-3.73,11.19-4.32,3.91-.59,7.79-1.08,11.66-1.48.16.4.3,2.11.41,5.15.12,3.04.2,6.95.24,11.72.04,4.78.06,9.99.06,15.63v16.93c0,5.64-.04,10.87-.12,15.69-.08,4.82-.14,8.76-.18,11.84-.04,3.08-.1,4.85-.18,5.33-2.05,0-4.05.02-5.98.06-1.94.04-3.89-.02-5.86-.18-.55-.16-1.24-.36-2.07-.59-.83-.24-1.36-.83-1.6-1.78-.16-.63-.46-1.05-.89-1.24-.44-.2-.89-.33-1.36-.41-2.13-.39-3.97-1.2-5.51-2.43-1.54-1.22-3.1-2.39-4.68-3.49-1.03-.87-2.01-1.74-2.96-2.6-.95-.87-1.86-1.7-2.72-2.49-1.26-1.42-2.31-2.94-3.14-4.56-.83-1.62-1.6-3.3-2.31-5.03-.08-.24-.18-.49-.3-.77-.12-.28-.37-.57-.77-.89-.08,4.34-.18,8.64-.3,12.91-.12,4.26-.26,8.49-.41,12.67-.08,1.02-.32,1.72-.71,2.07-.4.36-1.07.61-2.01.77-.79,0-1.54.02-2.25.06-.71.04-1.46.02-2.25-.06-.47-.16-.99-.34-1.54-.53-.55-.2-1.15-.37-1.78-.53-.55.79-1.15,1.16-1.78,1.12-.63-.04-1.15-.42-1.54-1.12-2.21.55-4.34.85-6.39.89-2.05.04-4.1.02-6.16-.06,0-.47-.04-.97-.12-1.48-.08-.51-.04-.81.12-.89Z"/>
  <path d="m708.27,99.01c-8.37-2.84-15.75-7.58-22.14-14.21-2.05-2.29-3.65-4.78-4.8-7.46-1.15-2.68-2.39-5.33-3.73-7.93-.32-.55-.46-1.18-.41-1.89.04-.71.02-1.38-.06-2.01v-10.48c0-3.51.04-6.96.12-10.36,0-2.13.39-4.18,1.18-6.16,3.71-8.44,8.8-15.1,15.27-19.95,6.47-4.85,14.05-8.35,22.73-10.48,1.34-.31,2.76-.39,4.26-.24,1.5.16,3.08.24,4.74.24-.08,3.08-.2,6.02-.35,8.82-.16,2.8-.32,5.58-.47,8.35-.08,2.45-.16,4.9-.24,7.34-.08,2.45-.2,4.93-.35,7.46-.08,1.5-.26,2.98-.53,4.44-.28,1.46-.37,2.94-.3,4.44.16,4.42.37,8.9.65,13.44.28,4.54.53,9.1.77,13.68,0,.32-.06.61-.18.89-.12.28-.18.57-.18.89-.08,2.05-.3,4.08-.65,6.1-.35,2.01-.02,4.08,1.01,6.22.63,1.26.85,2.72.65,4.38-.2,1.66-.37,3.24-.53,4.74-.08,1.03-.46,1.68-1.12,1.95-.67.28-1.4.33-2.19.18-2.21-.32-4.44-.63-6.69-.95-2.25-.32-4.4-.79-6.45-1.42Zm68.44-44.87v3.2c0,1.11.08,2.21.24,3.32.63,4.89.04,9.39-1.78,13.5-1.82,4.1-4.11,8.09-6.87,11.96-3.32,4.34-7.2,7.85-11.66,10.54-4.46,2.68-9.29,4.7-14.5,6.04-1.74.47-3.55.61-5.45.41-1.89-.2-4.03-.3-6.39-.3-.32-15.39-.71-30.74-1.18-46.06-.47-15.31-.95-30.71-1.42-46.18.79-.24,1.5-.49,2.13-.77.63-.28,1.26-.33,1.89-.18,4.66.08,9.16.77,13.5,2.07,4.34,1.3,8.48,3.26,12.43,5.86,5.37,3.55,9.47,7.85,12.31,12.91,2.84,5.05,5.05,10.5,6.63,16.34.31,1.11.42,2.31.3,3.61-.12,1.3-.18,2.55-.18,3.73Z"/>
  <path d="m838.16,42.29c-1.03-1.81-1.83-3.65-2.43-5.51-.59-1.85-.77-3.81-.53-5.86.24-1.5.24-2.88,0-4.14-.32-3.47.26-6.53,1.72-9.18,1.46-2.64,3.22-5.11,5.27-7.4,2.05-2.29,4.42-4.08,7.1-5.39,2.68-1.3,5.41-2.5,8.17-3.61.95-.31,1.99-.39,3.14-.24,1.14.16,2.23.24,3.26.24-.16,4.5-.37,8.88-.65,13.14-.28,4.26-.37,8.57-.3,12.91.08,4.11.14,8.27.18,12.49.04,4.22.26,8.43.65,12.61.63.24,1.26.35,1.89.35,5.37.55,9.87,2.23,13.5,5.03,3.63,2.8,6.47,6.65,8.53,11.54.63,1.26,1.1,2.59,1.42,3.97.31,1.38.39,2.82.24,4.32,0,1.03-.02,2.03-.06,3.02-.04.99-.02,1.92.06,2.78.55,3.47.02,6.47-1.6,9-1.62,2.53-3.45,4.89-5.51,7.1-2.05,2.29-4.48,4.06-7.28,5.33-2.8,1.26-5.82,1.97-9.06,2.13-.55,0-1.07-.02-1.54-.06-.47-.04-.91.02-1.3.18-1.18.55-2.29.39-3.32-.47-.32-.32-.73-.49-1.24-.53-.51-.04-.97-.14-1.36-.3-4.74-1.18-8.29-3.79-10.66-7.81-.71-1.42-1.11-3.12-1.18-5.09-.08-1.97.14-3.91.65-5.8.51-1.89,1.24-3.43,2.19-4.62,1.02-1.18,2.05-2.33,3.08-3.43,1.02-1.1,2.33-1.85,3.91-2.25.87-.24,1.72-.43,2.55-.59.83-.16,1.68-.28,2.55-.35.39,1.66.55,3.24.47,4.74-.08,1.5-.08,3,0,4.5.16.55.28,1.07.35,1.54.08.47.16.95.24,1.42v-8.11c0-2.72-.08-5.43-.24-8.11,0-2.52-.06-5.03-.18-7.52-.12-2.49-.22-5.07-.3-7.75-.87-.24-1.72-.45-2.55-.65-.83-.2-1.64-.41-2.43-.65-3.63-1.1-6.97-2.68-10-4.74-3.04-2.05-5.51-4.77-7.4-8.17Zm23.21,53.64h.71c-.08-1.03-.18-2.01-.3-2.96-.12-.95-.26-1.89-.41-2.84v5.8Zm3.67-94.72c3.08.24,5.6,1.07,7.58,2.49,2.76,1.82,5.03,3.97,6.81,6.45,1.78,2.49,2.55,5.47,2.31,8.94-.4,6.55-3.59,11.21-9.59,13.97-1.26.47-2.57.89-3.91,1.24-1.34.35-2.8.1-4.38-.77,0-5.29.04-10.62.12-15.98.08-5.37.43-10.81,1.07-16.34Z"/>
  <path d="m986.51,47.74c-.08,3.63-.22,7.3-.41,11.01-.2,3.71-.38,7.42-.53,11.13-.08,1.03-.18,2.07-.3,3.14-.12,1.07-.18,2.11-.18,3.14.16,4.82.12,9.53-.12,14.15-.24,4.62-.32,9.25-.24,13.91.08,1.26-.18,2.15-.77,2.66-.59.51-1.56.77-2.9.77h-3.43c-.71,0-1.3-.08-1.78-.24-.47-.16-1.11-.44-1.89-.83-.32.24-.67.53-1.07.89-.4.36-.91.85-1.54,1.48-.32-.47-.61-.97-.89-1.48-.28-.51-.61-1.05-1.01-1.6-.32.55-.61.97-.89,1.24-.28.28-.53.61-.77,1.01-.08,0-.22.02-.41.06-.2.04-.34.02-.41-.06-.55-.79-1.2-1.22-1.95-1.3-.75-.08-1.48,0-2.19.24-1.03.47-1.97.61-2.84.41-.87-.2-1.78-.49-2.72-.89-.16-1.18-.12-2.41.12-3.67.24-1.26.43-2.53.59-3.79,0-.16.02-.36.06-.59.04-.24.02-.39-.06-.47-.79-1.82-1.12-3.63-1.01-5.45.12-1.81.37-3.59.77-5.33.16-.79.33-1.58.53-2.37.2-.79.37-1.66.53-2.6-.71-.39-1.09-1.01-1.12-1.83-.04-.83-.02-1.64.06-2.43.24-1.89.39-3.81.47-5.74.08-1.93.16-3.81.24-5.62.08-2.92.16-5.8.24-8.64.08-2.84.16-5.64.24-8.41.16-5.05.31-10.12.47-15.21.16-5.09.28-10.16.35-15.21.16-2.29.24-4.6.24-6.93s.04-4.6.12-6.81c0-.47.04-.89.12-1.24.08-.36.16-.81.24-1.36.55,0,1.1-.02,1.66-.06.55-.04,1.07-.06,1.54-.06h18.83c.39,0,.85-.04,1.36-.12.51-.08,1.01-.16,1.48-.24,1.74,0,2.49.79,2.25,2.37-.32,1.74-.41,3.42-.3,5.03.12,1.62.1,3.3-.06,5.03-.16,1.42-.28,2.86-.35,4.32-.08,1.46-.2,2.9-.35,4.32,0,1.18.06,2.35.18,3.49.12,1.15.18,2.31.18,3.49,0,.55-.06,1.11-.18,1.66-.12.55-.22,1.15-.3,1.78-.08.24-.18.49-.3.77-.12.28-.14.53-.06.77.55,1.18.69,2.35.41,3.49-.28,1.15-.69,2.27-1.24,3.37,1.02.63,1.54,1.42,1.54,2.37s-.08,1.97-.24,3.08Zm2.49,59.2c-1.97,0-2.96-1.03-2.96-3.08v-14.09c0-1.03-.12-2.13-.35-3.32,0-.16-.02-.33-.06-.53-.04-.2-.06-.33-.06-.41.63-1.97.83-3.89.59-5.74-.24-1.85-.32-3.73-.24-5.62.16-1.5.39-2.39.71-2.66.31-.28,1.22-.41,2.72-.41h12.08c0,.71.02,1.32.06,1.83.04.51.06,1.05.06,1.6,0,2.29-.06,4.58-.18,6.87-.12,2.29-.18,4.58-.18,6.87,0,1.66.14,3.3.41,4.91.28,1.62.45,3.3.53,5.03.08,1.03.12,2.13.12,3.32v3.55c0,1.34-.67,2.01-2.01,2.01-1.89-.08-3.79-.1-5.68-.06-1.89.04-3.75.02-5.56-.06Zm14.09-83.24c-.16,2.21-.3,4.42-.41,6.63-.12,2.21-.26,4.38-.41,6.51,0,.08-.02.14-.06.18-.04.04-.06.14-.06.3-2.29-.16-4.6-.16-6.93,0-2.33.16-4.76,0-7.28-.47.08-2.29.16-4.58.24-6.87.08-2.29.16-4.58.24-6.87.16-1.18.24-2.35.24-3.49s.04-2.31.12-3.49c.16-1.97.35-3.91.59-5.8.24-1.89.4-3.83.47-5.8,0-1.18.51-1.78,1.54-1.78,2.13.08,4.24.18,6.33.3,2.09.12,4.28.22,6.57.3-.08,2.13-.16,4.19-.24,6.16-.08,1.97-.16,3.91-.24,5.8-.08,1.5-.18,2.94-.3,4.32-.12,1.38-.26,2.74-.41,4.08Zm-6.99,20.13c1.5.08,2.5.38,3.02.89.51.51.69,1.56.53,3.14-.08,1.5-.16,2.96-.24,4.38-.08,1.42-.16,2.88-.24,4.38,0,1.74.12,3.55.35,5.45.08,1.42-.08,2.37-.47,2.84-.4.47-1.3.75-2.72.83-.47.08-.87.1-1.18.06-.32-.04-.67-.06-1.07-.06-1.74.08-2.92.06-3.55-.06-.63-.12-.97-.51-1.01-1.18-.04-.67-.06-1.72-.06-3.14v-13.62c.08-1.58.35-2.6.83-3.08s1.46-.71,2.96-.71c.47-.08.97-.12,1.48-.12h1.36Z"/>
  <path d="m1113.67,39.45c-2.45,0-4.78.04-6.99.12-2.21.08-4.46-.16-6.75-.71v10.06c.95-.87,1.91-1.36,2.9-1.48.99-.12,2.03-.1,3.14.06,1.1.16,2.21.16,3.31,0-.08,2.45.06,4.76.42,6.93.35,2.17.22,4.4-.42,6.69-.24,1.26-.32,2.57-.24,3.91.08,1.34.04,2.69-.12,4.03-.08,1.26-.24,2.03-.47,2.31-.24.28-.99.41-2.25.41h-6.63c.16,5.76.18,11.43.06,16.99-.12,5.57.06,11.11.53,16.64h-26.88V5.47c.47-.16,1.97-.28,4.5-.35,2.52-.08,5.56-.12,9.12-.12h10.89c3.71,0,7.02.02,9.95.06,2.92.04,4.89.14,5.92.3v34.1Z"/>
  <path d="m1218.81,39.45c-2.45,0-4.78.04-6.99.12-2.21.08-4.46-.16-6.75-.71v10.06c.95-.87,1.91-1.36,2.9-1.48.99-.12,2.03-.1,3.14.06,1.1.16,2.21.16,3.31,0-.08,2.45.06,4.76.42,6.93.35,2.17.22,4.4-.42,6.69-.24,1.26-.32,2.57-.24,3.91.08,1.34.04,2.69-.12,4.03-.08,1.26-.24,2.03-.47,2.31-.24.28-.99.41-2.25.41h-6.63c.16,5.76.18,11.43.06,16.99-.12,5.57.06,11.11.53,16.64h-26.88V5.47c.47-.16,1.97-.28,4.5-.35,2.52-.08,5.56-.12,9.12-.12h10.89c3.71,0,7.02.02,9.95.06,2.92.04,4.89.14,5.92.3v34.1Z"/>
</svg>