<?xml version="1.0" encoding="utf-8"?>
<!-- Generator: Adobe Illustrator 27.7.0, SVG Export Plug-In . SVG Version: 6.00 Build 0)  -->
<svg version="1.1" id="Layer_1" xmlns="http://www.w3.org/2000/svg" xmlns:xlink="http://www.w3.org/1999/xlink" x="0px" y="0px"
	 viewBox="0 0 117 108.9" style="enable-background:new 0 0 117 108.9;" xml:space="preserve">
<path d="M40.3,99c-8.4-2.8-15.8-7.6-22.1-14.2c-2-2.3-3.7-4.8-4.8-7.5c-1.2-2.7-2.4-5.3-3.7-7.9c-0.3-0.6-0.5-1.2-0.4-1.9
	c0-0.7,0-1.4-0.1-2V55c0-3.5,0-7,0.1-10.4c0-2.1,0.4-4.2,1.2-6.2c3.7-8.4,8.8-15.1,15.3-20c6.5-4.9,14-8.4,22.7-10.5
	c1.3-0.3,2.8-0.4,4.3-0.2c1.5,0.2,3.1,0.2,4.7,0.2c-0.1,3.1-0.2,6-0.3,8.8c-0.2,2.8-0.3,5.6-0.5,8.4c-0.1,2.5-0.2,4.9-0.2,7.3
	c-0.1,2.5-0.2,4.9-0.3,7.5c-0.1,1.5-0.3,3-0.5,4.4c-0.3,1.5-0.4,2.9-0.3,4.4c0.2,4.4,0.4,8.9,0.7,13.4s0.5,9.1,0.8,13.7
	c0,0.3-0.1,0.6-0.2,0.9s-0.2,0.6-0.2,0.9c-0.1,2.1-0.3,4.1-0.7,6.1c-0.3,2,0,4.1,1,6.2c0.6,1.3,0.8,2.7,0.7,4.4
	c-0.2,1.7-0.4,3.2-0.5,4.7c-0.1,1-0.5,1.7-1.1,1.9c-0.7,0.3-1.4,0.3-2.2,0.2c-2.2-0.3-4.4-0.6-6.7-0.9S42.3,99.7,40.3,99L40.3,99z
	 M108.7,54.1v3.2c0,1.1,0.1,2.2,0.2,3.3c0.6,4.9,0,9.4-1.8,13.5c-1.8,4.1-4.1,8.1-6.9,12C97,90.5,93.1,94,88.6,96.7
	c-4.5,2.7-9.3,4.7-14.5,6c-1.7,0.5-3.5,0.6-5.5,0.4c-1.9-0.2-4-0.3-6.4-0.3c-0.3-15.4-0.7-30.7-1.2-46.1c-0.5-15.3-1-30.7-1.4-46.2
	c0.8-0.2,1.5-0.5,2.1-0.8c0.6-0.3,1.3-0.3,1.9-0.2c4.7,0.1,9.2,0.8,13.5,2.1s8.5,3.3,12.4,5.9c5.4,3.5,9.5,7.9,12.3,12.9
	c2.8,5,5,10.5,6.6,16.3c0.3,1.1,0.4,2.3,0.3,3.6S108.7,53,108.7,54.1z"/>
</svg>
