<?xml version="1.0" encoding="utf-8"?>
<!-- Generator: Adobe Illustrator 27.7.0, SVG Export Plug-In . SVG Version: 6.00 Build 0)  -->
<svg version="1.1" id="Layer_1" xmlns="http://www.w3.org/2000/svg" xmlns:xlink="http://www.w3.org/1999/xlink" x="0px" y="0px"
	 viewBox="0 0 72 108.9" style="enable-background:new 0 0 72 108.9;" xml:space="preserve">
<path d="M35.9,61.5c0,2.3,0.1,4.6,0.4,6.8c0.2,2.2,0.2,4.5-0.1,6.8c-0.3,2.1-0.3,4.1-0.1,6.1c0.3,2,0.3,4.1,0.1,6.1
	c-0.2,2.8-0.4,5.7-0.5,8.6c-0.1,2.9-0.2,5.9-0.4,8.9c0,0.3-0.1,0.7-0.2,1c-0.2,0.3-0.3,0.7-0.4,1.1H8.3V4.9h27
	c0.2,1.4,0.3,2.8,0.5,4.3s0.3,2.8,0.3,4.3c0.2,5.1,0.1,10.1-0.4,15.2c-0.2,2.5-0.2,5,0.1,7.6s0.4,5,0.4,7.6c0,2.4-0.1,4.7-0.2,7.1
	c-0.2,2.4-0.3,4.7-0.4,7c0,0.5,0,1.2,0.1,1.8C35.7,60.2,35.8,60.8,35.9,61.5L35.9,61.5z M61.8,18c0.9,1.5,1.6,3,2.2,4.6
	s0.9,3.2,0.7,5c-0.1,1.3-0.1,2.5-0.1,3.8c0,1.3,0,2.5,0.1,3.8c0.2,1.7,0.2,3.5-0.2,5.2s-1,3.2-2.1,4.6c-0.8,1.4-1.8,2.7-3,3.9
	c-1.2,1.2-2.4,2.3-3.5,3.4c-1.4,1.3-2.9,2.2-4.6,2.9c-1.6,0.7-3.3,1.3-5.1,1.8h6.8c1.8,0,2.9,0.2,3.3,0.7c0.4,0.4,0.6,1.6,0.8,3.4
	c0.5,6.7,0.8,13.4,0.6,20.1s-0.2,13.4,0,20.1v4.8c-0.8,0.2-1.5,0.3-2.2,0.6s-1.4,0.3-2,0.3c-1.7,0.1-3.4,0.1-5,0.1s-3.3-0.1-4.9-0.1
	c-1.2,0-2-0.2-2.4-0.5c-0.4-0.4-0.8-1.1-1.2-2.2c-0.5-2.1-0.8-4.1-0.8-6s-0.1-3.9-0.2-5.9c-0.2-2.7-0.4-5.4-0.5-8.2
	c-0.1-2.8-0.3-5.5-0.4-8.2c-0.1-1.5-0.1-2.9-0.2-4.3c0-1.4-0.1-2.7-0.3-4.1c-0.1-1.3,0.5-2.4,1.7-3.1c-0.5-0.7-1-1.4-1.4-2
	c-0.4-0.6-0.2-1.5,0.7-2.5c0.4-0.5,0.6-1.3,0.5-2.2s-0.1-1.8-0.2-2.5c-0.1-1.8-0.2-3.6-0.4-5.3c-0.2-1.7-0.3-3.4-0.4-5.2
	c-0.1-4.5-0.1-9-0.2-13.6c0-4.5-0.1-9.1-0.3-13.7c0-1,0.1-1.9,0.2-2.9s0.2-2,0.2-3c0-1.1-0.1-2.3-0.4-3.6c-0.2-1.7,0.4-2.7,2-3.1
	c1-0.2,1.9-0.3,2.7-0.4s1.7,0.2,2.6,0.7c0.3,0.2,0.7,0.4,1.1,0.5c0.4,0.1,0.7,0.2,1,0.2c0.5,0.2,1.2,0.7,2,1.4
	C54.4,9.5,58.7,13,61.8,18L61.8,18z"/>
</svg>
