<?xml version="1.0" encoding="utf-8"?>
<!-- Generator: Adobe Illustrator 27.7.0, SVG Export Plug-In . SVG Version: 6.00 Build 0)  -->
<svg version="1.1" id="Layer_1" xmlns="http://www.w3.org/2000/svg" xmlns:xlink="http://www.w3.org/1999/xlink" x="0px" y="0px"
	 viewBox="0 0 78 108.9" style="enable-background:new 0 0 78 108.9;" xml:space="preserve">
<path d="M16.2,42.3c-1-1.8-1.8-3.7-2.4-5.5c-0.6-1.8-0.8-3.8-0.5-5.9c0.2-1.5,0.2-2.9,0-4.1c-0.3-3.5,0.3-6.5,1.7-9.2
	c1.5-2.6,3.2-5.1,5.3-7.4c2-2.3,4.4-4.1,7.1-5.4c2.7-1.3,5.4-2.5,8.2-3.6c1-0.3,2-0.4,3.1-0.2c1.1,0.2,2.2,0.2,3.3,0.2
	c-0.2,4.5-0.4,8.9-0.7,13.1s-0.4,8.6-0.3,12.9c0.1,4.1,0.1,8.3,0.2,12.5s0.3,8.4,0.7,12.6c0.6,0.2,1.3,0.3,1.9,0.3
	c5.4,0.5,9.9,2.2,13.5,5s6.5,6.7,8.5,11.5c0.6,1.3,1.1,2.6,1.4,4c0.3,1.4,0.4,2.8,0.2,4.3c0,1,0,2-0.1,3s0,1.9,0.1,2.8
	c0.5,3.5,0,6.5-1.6,9s-3.5,4.9-5.5,7.1c-2,2.3-4.5,4.1-7.3,5.3c-2.8,1.3-5.8,2-9.1,2.1c-0.5,0-1.1,0-1.5-0.1s-0.9,0-1.3,0.2
	c-1.2,0.6-2.3,0.4-3.3-0.5c-0.3-0.3-0.7-0.5-1.2-0.5s-1-0.1-1.4-0.3c-4.7-1.2-8.3-3.8-10.7-7.8c-0.7-1.4-1.1-3.1-1.2-5.1
	c-0.1-2,0.1-3.9,0.7-5.8s1.2-3.4,2.2-4.6c1-1.2,2-2.3,3.1-3.4c1-1.1,2.3-1.8,3.9-2.2c0.9-0.2,1.7-0.4,2.5-0.6
	c0.8-0.2,1.7-0.3,2.5-0.3c0.4,1.7,0.5,3.2,0.5,4.7s-0.1,3,0,4.5c0.2,0.6,0.3,1.1,0.3,1.5c0.1,0.5,0.2,0.9,0.2,1.4v-8.1
	c0-2.7-0.1-5.4-0.2-8.1c0-2.5-0.1-5-0.2-7.5c-0.1-2.5-0.2-5.1-0.3-7.8c-0.9-0.2-1.7-0.5-2.5-0.7s-1.6-0.4-2.4-0.7
	c-3.6-1.1-7-2.7-10-4.7C20.5,48.4,18,45.7,16.2,42.3L16.2,42.3z M39.4,95.9h0.7c-0.1-1-0.2-2-0.3-3s-0.3-1.9-0.4-2.8L39.4,95.9
	L39.4,95.9z M43,1.2c3.1,0.2,5.6,1.1,7.6,2.5c2.8,1.8,5,4,6.8,6.4c1.8,2.5,2.5,5.5,2.3,8.9c-0.4,6.6-3.6,11.2-9.6,14
	c-1.3,0.5-2.6,0.9-3.9,1.2c-1.3,0.3-2.8,0.1-4.4-0.8c0-5.3,0-10.6,0.1-16C42.1,12.2,42.4,6.7,43,1.2L43,1.2z"/>
</svg>
