<?xml version="1.0" encoding="UTF-8"?>
<svg id="icon" xmlns="http://www.w3.org/2000/svg" version="1.1" viewBox="0 0 800 800">
  <!-- Generator: Adobe Illustrator 29.6.1, SVG Export Plug-In . SVG Version: 2.1.1 Build 9)  -->
  <defs>
    <style>
      .st0 {
        fill: none;
      }

      .st1 {
        fill: #252422;
      }
    </style>
  </defs>
  <path class="st1" d="M734.3,296c-6.7-21.8-15.6-42.8-26.5-62.8-16.1-29.6-36.4-56.8-60.3-80.8-136.7-136.7-358.3-136.7-495,0-136.7,136.7-136.7,358.3,0,495,136.7,136.7,358.3,136.7,494.9,0,23.8-23.9,44.1-51.1,60.2-80.7,10.9-20,19.8-41,26.5-62.8,21.1-67.7,21.1-140.3,0-208h0ZM65,400c0-165.7,136-335,335-335v670c-203,0-335-169.3-335-335Z"/>
  <rect id="_Transparent_Rectangle_" class="st0" width="800" height="800"/>
</svg>