<?xml version="1.0" encoding="utf-8"?>
<!-- Generator: Adobe Illustrator 27.7.0, SVG Export Plug-In . SVG Version: 6.00 Build 0)  -->
<svg version="1.1" id="a" xmlns="http://www.w3.org/2000/svg" xmlns:xlink="http://www.w3.org/1999/xlink" x="0px" y="0px"
	 viewBox="0 0 800 800" style="enable-background:new 0 0 800 800;" xml:space="preserve">
<style type="text/css">
	.st0{fill:none;stroke:#FFFFFF;stroke-width:16.6667;stroke-linecap:round;stroke-linejoin:round;stroke-miterlimit:66.6667;}
</style>
<g id="b">
	<path id="c" class="st0" d="M390.5,369.1c31.3,29.3,27.3,49.5,26.4,77.6c-4.2,140.1,11.8,194.2,40,207.8
		c88.5,26.6,246.1-108.6,143.4-381.8c-44.8-110.7-233-191.8-380.1-69.3c-45.5,43-63.4,87.7,0,161.1c42.2,44.4,60.3,79.7-20.9,77.3
		c-177.3-11.7-119.6,90.2-96.6,117.6c92.6,107.2,201.8,122.7,254.5,58c258.3-353.8,378.6-259.8,367.3-199.7
		c-12.9,127.1-138.7,192.4-229.9,202.6c-105.7,11.8-234.6-30.2-287.5-146.6c-37.7-95.4,140.1-124.6,235.8-146.9"/>
</g>
</svg>
