<?xml version="1.0" encoding="utf-8"?>
<!-- Generator: Adobe Illustrator 27.7.0, SVG Export Plug-In . SVG Version: 6.00 Build 0)  -->
<svg version="1.1" id="Layer_1" xmlns="http://www.w3.org/2000/svg" xmlns:xlink="http://www.w3.org/1999/xlink" x="0px" y="0px"
	 viewBox="0 0 67 108.9" style="enable-background:new 0 0 67 108.9;" xml:space="preserve">
<path d="M39.5,47.7c-0.1,3.6-0.2,7.3-0.4,11c-0.2,3.7-0.4,7.4-0.5,11.1c-0.1,1-0.2,2.1-0.3,3.1s-0.2,2.1-0.2,3.1
	c0.2,4.8,0.1,9.5-0.1,14.2s-0.3,9.2-0.2,13.9c0.1,1.3-0.2,2.2-0.8,2.7s-1.6,0.8-2.9,0.8h-3.4c-0.7,0-1.3-0.1-1.8-0.2
	c-0.5-0.2-1.1-0.4-1.9-0.8c-0.3,0.2-0.7,0.5-1.1,0.9s-0.9,0.8-1.5,1.5c-0.3-0.5-0.6-1-0.9-1.5s-0.6-1.1-1-1.6
	c-0.3,0.6-0.6,1-0.9,1.2c-0.3,0.3-0.5,0.6-0.8,1c-0.1,0-0.2,0-0.4,0.1c-0.2,0-0.3,0-0.4-0.1c-0.5-0.8-1.2-1.2-2-1.3s-1.5,0-2.2,0.2
	c-1,0.5-2,0.6-2.8,0.4c-0.9-0.2-1.8-0.5-2.7-0.9c-0.2-1.2-0.1-2.4,0.1-3.7c0.2-1.3,0.4-2.5,0.6-3.8c0-0.2,0-0.4,0.1-0.6
	c0-0.2,0-0.4-0.1-0.5c-0.8-1.8-1.1-3.6-1-5.4c0.1-1.8,0.4-3.6,0.8-5.3c0.2-0.8,0.3-1.6,0.5-2.4s0.4-1.7,0.5-2.6
	c-0.7-0.4-1.1-1-1.1-1.8c0-0.8,0-1.6,0.1-2.4c0.2-1.9,0.4-3.8,0.5-5.7c0.1-1.9,0.2-3.8,0.2-5.6c0.1-2.9,0.2-5.8,0.2-8.6
	s0.2-5.6,0.2-8.4c0.2-5,0.3-10.1,0.5-15.2s0.3-10.2,0.3-15.2c0.2-2.3,0.2-4.6,0.2-6.9s0-4.6,0.1-6.8c0-0.5,0-0.9,0.1-1.2
	c0.1-0.4,0.2-0.8,0.2-1.4c0.5,0,1.1,0,1.7-0.1c0.5,0,1.1-0.1,1.5-0.1h18.8c0.4,0,0.8,0,1.4-0.1s1-0.2,1.5-0.2c1.7,0,2.5,0.8,2.2,2.4
	c-0.3,1.7-0.4,3.4-0.3,5c0.1,1.6,0.1,3.3-0.1,5c-0.2,1.4-0.3,2.9-0.3,4.3c-0.1,1.5-0.2,2.9-0.3,4.3c0,1.2,0.1,2.4,0.2,3.5
	c0.1,1.1,0.2,2.3,0.2,3.5c0,0.5-0.1,1.1-0.2,1.7s-0.2,1.2-0.3,1.8c-0.1,0.2-0.2,0.5-0.3,0.8S39,35.2,39,35.4
	c0.5,1.2,0.7,2.3,0.4,3.5c-0.3,1.2-0.7,2.3-1.2,3.4c1,0.6,1.5,1.4,1.5,2.4S39.7,46.6,39.5,47.7L39.5,47.7z M42,106.9c-2,0-3-1-3-3.1
	V89.8c0-1-0.1-2.1-0.3-3.3c0-0.2,0-0.3-0.1-0.5s-0.1-0.3-0.1-0.4c0.6-2,0.8-3.9,0.6-5.7s-0.3-3.7-0.2-5.6c0.2-1.5,0.4-2.4,0.7-2.7
	c0.3-0.3,1.2-0.4,2.7-0.4h12.1c0,0.7,0,1.3,0.1,1.8s0.1,1.1,0.1,1.6c0,2.3-0.1,4.6-0.2,6.9s-0.2,4.6-0.2,6.9c0,1.7,0.1,3.3,0.4,4.9
	c0.3,1.6,0.5,3.3,0.5,5c0.1,1,0.1,2.1,0.1,3.3v3.6c0,1.3-0.7,2-2,2c-1.9-0.1-3.8-0.1-5.7-0.1S43.8,107,42,106.9L42,106.9z
	 M56.1,23.7c-0.2,2.2-0.3,4.4-0.4,6.6c-0.1,2.2-0.3,4.4-0.4,6.5c0,0.1,0,0.1-0.1,0.2s-0.1,0.1-0.1,0.3c-2.3-0.2-4.6-0.2-6.9,0
	s-4.8,0-7.3-0.5c0.1-2.3,0.2-4.6,0.2-6.9s0.2-4.6,0.2-6.9c0.2-1.2,0.2-2.4,0.2-3.5s0-2.3,0.1-3.5c0.2-2,0.3-3.9,0.6-5.8
	c0.2-1.9,0.4-3.8,0.5-5.8c0-1.2,0.5-1.8,1.5-1.8c2.1,0.1,4.2,0.2,6.3,0.3s4.3,0.2,6.6,0.3c-0.1,2.1-0.2,4.2-0.2,6.2
	s-0.2,3.9-0.2,5.8c-0.1,1.5-0.2,2.9-0.3,4.3C56.4,21,56.2,22.4,56.1,23.7L56.1,23.7z M49.1,43.8c1.5,0.1,2.5,0.4,3,0.9
	c0.5,0.5,0.7,1.6,0.5,3.1c-0.1,1.5-0.2,3-0.2,4.4c-0.1,1.4-0.2,2.9-0.2,4.4c0,1.7,0.1,3.5,0.3,5.5c0.1,1.4-0.1,2.4-0.5,2.8
	c-0.4,0.5-1.3,0.8-2.7,0.8c-0.5,0.1-0.9,0.1-1.2,0.1c-0.3,0-0.7-0.1-1.1-0.1c-1.7,0.1-2.9,0.1-3.5-0.1c-0.6-0.1-1-0.5-1-1.2
	c0-0.7-0.1-1.7-0.1-3.1V47.7c0.1-1.6,0.3-2.6,0.8-3.1s1.5-0.7,3-0.7c0.5-0.1,1-0.1,1.5-0.1L49.1,43.8L49.1,43.8z"/>
</svg>
