<?xml version="1.0" encoding="utf-8"?>
<!-- Generator: Adobe Illustrator 27.7.0, SVG Export Plug-In . SVG Version: 6.00 Build 0)  -->
<svg version="1.1" id="Layer_1" xmlns="http://www.w3.org/2000/svg" xmlns:xlink="http://www.w3.org/1999/xlink" x="0px" y="0px"
	 viewBox="0 0 61 108.9" style="enable-background:new 0 0 61 108.9;" xml:space="preserve">
<path d="M52.7,39.5c-2.4,0-4.8,0-7,0.1c-2.2,0.1-4.5-0.2-6.8-0.7v10.1c0.9-0.9,1.9-1.4,2.9-1.5s2-0.1,3.1,0.1c1.1,0.2,2.2,0.2,3.3,0
	c-0.1,2.5,0.1,4.8,0.4,6.9c0.3,2.2,0.2,4.4-0.4,6.7C48,62.4,48,63.7,48,65c0.1,1.3,0,2.7-0.1,4c-0.1,1.3-0.2,2-0.5,2.3
	c-0.2,0.3-1,0.4-2.2,0.4h-6.6c0.2,5.8,0.2,11.4,0.1,17c-0.1,5.6,0.1,11.1,0.5,16.6H12.3V5.5c0.5-0.2,2-0.3,4.5-0.3
	C19.3,5,22.3,5,25.9,5h10.9c3.7,0,7,0,9.9,0.1c2.9,0,4.9,0.1,5.9,0.3L52.7,39.5L52.7,39.5z"/>
</svg>
