<?xml version="1.0" encoding="utf-8"?>
<!-- Generator: Adobe Illustrator 27.7.0, SVG Export Plug-In . SVG Version: 6.00 Build 0)  -->
<svg version="1.1" id="Layer_2_00000024717670595608830400000010965224141188162205_"
	 xmlns="http://www.w3.org/2000/svg" xmlns:xlink="http://www.w3.org/1999/xlink" x="0px" y="0px" viewBox="0 0 800 800"
	 style="enable-background:new 0 0 800 800;" xml:space="preserve">
<style type="text/css">
	.st0{fill:none;stroke:#FFFFFF;stroke-width:16.6667;stroke-linecap:round;stroke-linejoin:round;stroke-miterlimit:66.6667;}
</style>
<path class="st0" d="M400,41.7C202.1,41.6,41.6,201.9,41.5,399.8C41.4,554.2,140.2,691.3,286.7,740c18,3.3,24.5-7.7,24.5-16.7
	c0-9,0-31,0-60.8c-100,21.7-120.7-48-120.7-48c-6.6-22-21-40.9-40.5-53.2c-32.5-22.2,2.5-21.8,2.5-21.8c23,3.2,43.2,16.9,54.8,37
	c32,54.8,83.3,39,104.3,29.8c1.7-18.2,9.8-35.2,22.8-48c-79.7-9-163.3-39.7-163.3-177c-0.5-35.6,12.7-70.1,37-96.2
	c-11-30.9-9.8-64.8,3.5-94.8c0,0,30-9.7,98.5,36.7c58.7-16,120.6-16,179.3,0c68.5-46.3,98.5-36.7,98.5-36.7
	c13.2,30,14.4,63.9,3.5,94.8c24.2,26.1,37.4,60.6,36.8,96.2c0,137.7-83.3,167.8-163.5,176.8c17.4,17.6,26.3,42,24.3,66.7
	c0,47.8,0,86.5,0,98.3s6.5,20.7,24.7,16.7C701.5,677.1,802.8,474,740,286.4C691.1,140.1,554.2,41.6,400,41.7"/>
</svg>
