<?xml version="1.0" encoding="utf-8"?>
<!-- Generator: Adobe Illustrator 27.7.0, SVG Export Plug-In . SVG Version: 6.00 Build 0)  -->
<svg version="1.1" id="Layer_1" xmlns="http://www.w3.org/2000/svg" xmlns:xlink="http://www.w3.org/1999/xlink" x="0px" y="0px"
	 viewBox="0 0 88 108.9" style="enable-background:new 0 0 88 108.9;" xml:space="preserve">
<path d="M11.1,102c0.8-0.9,1.1-1.9,1-2.9c-0.1-1,0-1.9,0.3-2.8c0.1-0.2,0.1-0.4,0.1-0.7s-0.1-0.4-0.3-0.5c-0.9-1.4-1.2-2.8-1-4.2
	c0.2-1.4,0.4-2.7,0.5-4c0.1-1.1,0.3-2.2,0.5-3.4c0.3-1.1,0.5-2.3,0.7-3.6c-0.5-0.2-0.8-0.7-0.8-1.3s0-1.3,0.1-1.9
	c0.2-3.6,0.5-7,0.7-10.3c0.1-5.6,0.2-11.2,0.2-16.6s0.2-11,0.2-16.5c0.1-3.3,0.2-6.6,0.5-9.8c0.2-3.2,0.4-6.5,0.5-9.8
	c0-1.1,0-2.2-0.1-3.4S14.1,8,14,6.9c0-0.5,0-1,0.1-1.5s0.1-1.1,0.2-1.7h10.5c2.3,0,4.5,0,6.6-0.1s4.3-0.1,6.4-0.2
	c2.1,0,3,0.9,2.5,2.7c-0.2,0.6-0.2,1.2-0.2,1.7c0,0.5,0.1,1.1,0.2,1.7c0.1,1,0.1,2.1,0.1,3.2s-0.1,2.2-0.1,3.3
	c-0.2,2.3-0.3,4.6-0.5,7c-0.2,2.4-0.3,4.8-0.3,7.2c-0.1,1.3-0.2,2.5-0.4,3.7c-0.2,1.2-0.1,2.4,0.1,3.7c0.2,0.4,0.1,0.8-0.1,1.4
	c-0.2,0.5-0.3,1-0.3,1.5c-0.2,1,0,1.9,0.5,2.7c1.6-4,3.8-7.2,6.6-9.9c2.8-2.6,6-5.1,9.3-7.3c3.5-2.3,7.3-3.7,11.2-4.3
	s7.8-1.1,11.7-1.5c0.2,0.4,0.3,2.1,0.4,5.1c0.1,3,0.2,7,0.2,11.7c0,4.8,0.1,10,0.1,15.6v16.9c0,5.6,0,10.9-0.1,15.7
	s-0.1,8.8-0.2,11.8s-0.1,4.8-0.2,5.3c-2,0-4,0-6,0.1c-1.9,0-3.9,0-5.9-0.2c-0.5-0.2-1.2-0.4-2.1-0.6c-0.8-0.2-1.4-0.8-1.6-1.8
	c-0.2-0.6-0.5-1.1-0.9-1.2c-0.4-0.2-0.9-0.3-1.4-0.4c-2.1-0.4-4-1.2-5.5-2.4c-1.5-1.2-3.1-2.4-4.7-3.5c-1-0.9-2-1.7-3-2.6
	c-1-0.9-1.9-1.7-2.7-2.5c-1.3-1.4-2.3-2.9-3.1-4.6c-0.8-1.6-1.6-3.3-2.3-5c-0.1-0.2-0.2-0.5-0.3-0.8s-0.4-0.6-0.8-0.9
	c-0.1,4.3-0.2,8.6-0.3,12.9c-0.1,4.3-0.3,8.5-0.4,12.7c-0.1,1-0.3,1.7-0.7,2.1c-0.4,0.4-1.1,0.6-2,0.8c-0.8,0-1.5,0-2.2,0.1
	s-1.5,0-2.2-0.1c-0.5-0.2-1-0.3-1.5-0.5c-0.5-0.2-1.2-0.4-1.8-0.5c-0.5,0.8-1.2,1.2-1.8,1.1s-1.2-0.4-1.5-1.1
	c-2.2,0.6-4.3,0.8-6.4,0.9s-4.1,0-6.2-0.1c0-0.5,0-1-0.1-1.5S10.9,102.1,11.1,102L11.1,102z"/>
</svg>
