<?xml version="1.0" encoding="utf-8"?>
<!-- Generator: Adobe Illustrator 27.7.0, SVG Export Plug-In . SVG Version: 6.00 Build 0)  -->
<svg version="1.1" id="Layer_1" xmlns="http://www.w3.org/2000/svg" xmlns:xlink="http://www.w3.org/1999/xlink" x="0px" y="0px"
	 viewBox="0 0 58 108.9" style="enable-background:new 0 0 58 108.9;" xml:space="preserve">
<path d="M0,106.2c0.2-0.6,0.3-1.1,0.5-1.6s0.3-1.1,0.4-1.6c0.2-0.6,0.2-1,0.1-1.4s-0.1-0.9-0.1-1.4c0.2-0.6,0.3-1.3,0.4-1.9
	c0.1-0.6-0.2-1.2-0.8-1.8c-0.1-0.1,0-0.3,0.2-0.7c0.2-0.4,0.4-0.8,0.6-1.1c-0.9-1.1-1.3-2.2-1.2-3.4s0.2-2.4,0.3-3.6
	c0.2-0.9,0.4-1.8,0.7-2.7c0.3-0.8,0.6-1.6,0.8-2.4C2,82.4,2,82.3,2,82.1c-1-1.2-1.4-2.4-1.1-3.6s0.5-2.4,0.5-3.5
	c0.1-3.8,0.1-7.6,0.1-11.3s0-7.5,0.1-11.3c0.2-3.2,0.3-6.5,0.5-9.7s0.4-6.4,0.5-9.6s0.1-6.3,0.1-9.4s0-6.2,0.1-9.2
	C3,12.7,3,10.9,3,9.1s0-3.6,0.1-5.5c0-0.2,0-0.5,0.1-0.8s0.2-0.5,0.2-0.5c2.8-0.5,5.5-0.8,8.4-0.6C14.6,1.9,17.4,2,20.3,2
	c2.8,0.1,5.7-0.2,8.5-1c0.4,0.2,0.8,0.6,1.1,1c0.3,0.4,0.5,1,0.5,1.6c-0.2,3.2-0.3,6.3-0.5,9.6c-0.2,3.2-0.3,6.5-0.5,9.7
	c0,1,0,2,0.1,2.9s0.1,1.9,0.1,2.9c-0.1,0.9-0.1,1.7,0,2.6s-0.2,1.7-1,2.6c-0.2,0.4-0.2,0.7,0,0.8c0.9,1.3,1.1,2.4,0.6,3.4
	s-0.9,2.2-1.3,3.4c1,0.6,1.5,1.4,1.5,2.4c0.1,1,0,2-0.1,3c-0.8,5.5-1,11.1-0.7,16.7c0,1.5-0.1,3-0.2,4.4s-0.3,2.9-0.5,4.4V79
	c-0.1,1.3-0.1,2.5-0.1,3.8s0,2.6-0.1,3.9c-0.1,2.9-0.2,5.9-0.3,9c-0.1,3.1-0.3,6.2-0.4,9.2c-0.1,2-1.1,3-3,3c-1.1,0-2.2,0-3.4,0.1
	s-2.2-0.3-3.2-1.1c-0.2-0.2-0.3-0.3-0.5-0.3s-0.4-0.1-0.5-0.1c-0.7,0.6-1.4,0.8-2.1,0.5s-1.3-0.6-1.9-0.8c-0.3,0.2-0.6,0.5-0.9,0.8
	c-0.3,0.3-0.7,0.6-1.1,0.8c-0.3,0-0.5,0-0.6-0.1c-0.6-0.7-1.2-1.1-2-1.1s-1.5,0.2-2.1,0.5c-1.7,1-3.1,0.9-4.3-0.2
	c-0.2-0.2-0.4-0.3-0.6-0.3S0.4,106.4,0,106.2L0,106.2z M29.4,105.2V95c0-3.3,0.3-6.7,1-10.1c0.2-1.1,0.2-2.3,0.1-3.5
	s-0.1-2.5-0.1-3.7c0.1-0.7,0.1-1.4,0.2-2.1s0.1-1.5,0.2-2.5c2.5-0.1,4.9-0.1,7.3-0.2s4.8,0.1,7.3,0.5c0,1.9,0,3.8,0.1,5.7
	s0,3.8-0.1,5.7c-0.2,3.2-0.3,6.5-0.6,9.8s-0.4,6.5-0.6,9.8c-0.1,1.5-0.3,2.5-0.7,2.9s-1.3,0.7-2.8,0.7h-8.4c-1.1,0-1.8-0.2-2.2-0.5
	C29.5,107,29.4,106.3,29.4,105.2L29.4,105.2z"/>
</svg>
